<svg id="Layer_1" data-name="Layer 1" xmlns="http://www.w3.org/2000/svg" viewBox="0 0 128 80"><defs><style>.cls-1{fill:#fff;}.cls-2{fill:#2b536b;}.cls-3{fill:#ffac15;}.cls-4{fill:#55c3fa;}</style></defs><title>Artboard 2</title><path class="cls-1" d="M88.28,16.83a7.12,7.12,0,0,1,7.11,7.11V56.06a7.12,7.12,0,0,1-7.11,7.11H40.35a7.12,7.12,0,0,1-7.11-7.11V23.94a7.12,7.12,0,0,1,7.11-7.11H88.28m0-2H40.35a9.12,9.12,0,0,0-9.11,9.11V56.06a9.12,9.12,0,0,0,9.11,9.11H88.28a9.12,9.12,0,0,0,9.11-9.11V23.94a9.12,9.12,0,0,0-9.11-9.11Z"/><rect class="cls-1" x="34.49" y="17.83" width="60.16" height="44.34" rx="6.11" ry="6.11"/><path class="cls-2" d="M88.28,18.83a5.11,5.11,0,0,1,5.11,5.11V56.06a5.11,5.11,0,0,1-5.11,5.11H40.35a5.11,5.11,0,0,1-5.11-5.11V23.94a5.11,5.11,0,0,1,5.11-5.11H88.28m0-2H40.35a7.12,7.12,0,0,0-7.11,7.11V56.06a7.12,7.12,0,0,0,7.11,7.11H88.28a7.12,7.12,0,0,0,7.11-7.11V23.94a7.12,7.12,0,0,0-7.11-7.11Z"/><path class="cls-1" d="M34.88,18.94a6.37,6.37,0,0,0-3.77,1.22l-8,5.83a6.41,6.41,0,0,0-.21,10.21l7.77,6.16A6.42,6.42,0,0,0,41,37.75H62a6.41,6.41,0,0,0,0-12.82H41.28a6.4,6.4,0,0,0-6.4-6Z"/><path class="cls-3" d="M34.69,40.28a3,3,0,0,1-1.83-.64l-7.77-6.16a2.95,2.95,0,0,1,.1-4.69l8-5.83a2.95,2.95,0,0,1,3.46,4.77l-.91.66h26a2.95,2.95,0,0,1,0,5.89H35.58l.94.74a2.95,2.95,0,0,1-1.83,5.25Z"/><path class="cls-2" d="M34.94,23.4a1.95,1.95,0,0,1,1.14,3.52l-3.4,2.47H61.74a1.95,1.95,0,1,1,0,3.89h-29l3.19,2.53a1.95,1.95,0,0,1-1.21,3.47h0a1.94,1.94,0,0,1-1.21-.42L25.71,32.7a1.95,1.95,0,0,1,.07-3.1l8-5.83a1.94,1.94,0,0,1,1.14-.37m0-2a3.92,3.92,0,0,0-2.32.75L24.6,28a3.95,3.95,0,0,0-.13,6.28l7.77,6.16a3.95,3.95,0,0,0,5.82-5.15H61.74a3.95,3.95,0,1,0,0-7.89H38.32a3.95,3.95,0,0,0-3.37-6Z"/><path class="cls-1" d="M93.37,35.88a6.42,6.42,0,0,0-6.4,6H66A6.41,6.41,0,0,0,66,54.7H86.72a6.41,6.41,0,0,0,10.16,4.77l8-5.83a6.41,6.41,0,0,0,.21-10.21l-7.77-6.16a6.43,6.43,0,0,0-4-1.39Z"/><path class="cls-4" d="M93.75,57.29A2.95,2.95,0,0,1,92,52l.91-.66h-26a2.95,2.95,0,0,1,0-5.89H93.11l-.94-.74A2.95,2.95,0,1,1,95.83,40l7.77,6.16a2.95,2.95,0,0,1-.1,4.69l-8,5.83A2.93,2.93,0,0,1,93.75,57.29Z"/><path class="cls-2" d="M94,40.41a1.94,1.94,0,0,1,1.21.42L103,47a1.95,1.95,0,0,1-.07,3.1l-8,5.83a1.95,1.95,0,0,1-2.29-3.15L96,50.3H66.94a1.95,1.95,0,1,1,0-3.89H96l-3.19-2.53A1.95,1.95,0,0,1,94,40.41h0m0-2a3.95,3.95,0,0,0-3.37,6H66.94a3.95,3.95,0,1,0,0,7.89H90.37a3.95,3.95,0,0,0,5.69,5.24l8-5.83a3.95,3.95,0,0,0,.13-6.28l-7.77-6.16A4,4,0,0,0,94,38.41Z"/></svg>